<svg xmlns="http://www.w3.org/2000/svg" fill="white" style="fill: white;width: 18px;" viewBox="0 0 53 54"><g id="Layer_2" data-name="Layer 2"><g id="Layer_1-2" data-name="Layer 1" style=""><path d="M54.5,43a5.49,5.49,0,0,0-5.33,4.18H19.83a5.47,5.47,0,0,0-2.6-3.45,14.89,14.89,0,0,1,.32-4.51c.27-1.49.53-2.95.88-4.88H57.36l6.17-23.18H16l-1-11L0,0V3.14l12.25,0v0c.13,2.65.39,5.28.71,7.91v.05h0c1.18,9.78,3.09,19.47,1.39,29.43a9.35,9.35,0,0,1-.68,2.49,5.5,5.5,0,1,0,6.17,6.74H49.16A5.5,5.5,0,1,0,54.5,43Z"/></g></g></svg>